<svg width="128" height="128" viewBox="0 0 128 128" fill="none" xmlns="http://www.w3.org/2000/svg">
<rect width="112.941" height="112.941" rx="24" fill="#FFAE1F"/>
<rect x="7.52941" y="7.52943" width="112.941" height="112.941" rx="24" fill="#6AABAB"/>
<rect x="15.0588" y="15.0589" width="112.941" height="112.941" rx="24" fill="#FFAE1F"/>
<path d="M61.2956 105.424C57.8396 105.424 54.5756 104.624 51.5036 103.024C48.4316 101.424 45.9356 99.184 44.0156 96.304C42.0956 93.36 41.1356 89.872 41.1356 85.84C41.1356 82.448 41.9676 78.832 43.6316 74.992C45.3596 71.088 47.5676 67.152 50.2556 63.184C53.0076 59.152 55.9836 55.344 59.1836 51.76C62.3836 48.112 65.5196 44.88 68.5916 42.064C71.6636 39.184 74.3836 36.912 76.7516 35.248C79.1196 33.584 80.7836 32.752 81.7436 32.752C82.9596 32.752 84.0156 33.104 84.9116 33.808C85.8716 34.448 86.3836 35.44 86.4476 36.784C86.4476 37.424 86.2236 38.16 85.7756 38.992C85.3276 39.76 84.4636 40.56 83.1836 41.392C81.7756 42.288 79.9836 43.632 77.8076 45.424C75.6316 47.216 73.2956 49.36 70.7996 51.856C68.3036 54.288 65.8396 56.944 63.4076 59.824C60.9756 62.64 58.7356 65.552 56.6876 68.56C54.6396 71.504 53.0076 74.384 51.7916 77.2C50.5756 80.016 49.9676 82.64 49.9676 85.072C49.9676 88.848 51.0236 91.728 53.1356 93.712C55.2476 95.696 58.1596 96.688 61.8716 96.688C63.7916 96.688 66.0636 96.144 68.6876 95.056C71.3116 93.968 73.9996 92.528 76.7516 90.736C79.5676 88.944 82.2556 86.992 84.8156 84.88C87.3756 82.704 89.5516 80.56 91.3436 78.448C93.1996 76.336 94.4156 74.416 94.9916 72.688C93.3916 73.072 91.3756 73.488 88.9436 73.936C86.5116 74.384 83.9836 74.8 81.3596 75.184C78.7996 75.568 76.4636 75.888 74.3516 76.144C72.2396 76.4 70.7036 76.528 69.7436 76.528C67.7596 76.528 66.1916 76.016 65.0396 74.992C63.9516 73.968 63.4076 72.944 63.4076 71.92C63.4076 71.216 63.6956 70.544 64.2716 69.904C64.8476 69.264 65.7436 68.848 66.9596 68.656C68.3676 68.464 70.2236 68.176 72.5276 67.792C74.8956 67.344 77.3596 66.928 79.9196 66.544C82.5436 66.096 84.9436 65.712 87.1196 65.392C89.3596 65.072 91.0556 64.912 92.2076 64.912C95.5356 64.912 97.9996 65.904 99.5996 67.888C101.2 69.808 102 72.56 102 76.144C102 77.872 101.136 79.984 99.4076 82.48C97.6796 84.976 95.3436 87.568 92.3996 90.256C89.5196 92.88 86.2876 95.344 82.7036 97.648C79.1836 99.952 75.5676 101.84 71.8556 103.312C68.1436 104.72 64.6236 105.424 61.2956 105.424Z" fill="#262626"/>
</svg>
