<svg width="128" height="128" viewBox="0 0 128 128" fill="none" xmlns="http://www.w3.org/2000/svg">
<rect width="112.941" height="112.941" rx="24" fill="#027373"/>
<rect x="7.52942" y="7.52943" width="112.941" height="112.941" rx="24" fill="#262626"/>
<rect x="15.0588" y="15.0589" width="112.941" height="112.941" rx="24" fill="#027373"/>
<path d="M61.0603 105.424C57.6043 105.424 54.3403 104.624 51.2683 103.024C48.1963 101.424 45.7003 99.184 43.7803 96.304C41.8603 93.36 40.9003 89.872 40.9003 85.84C40.9003 82.448 41.7323 78.832 43.3963 74.992C45.1243 71.088 47.3323 67.152 50.0203 63.184C52.7723 59.152 55.7483 55.344 58.9483 51.76C62.1483 48.112 65.2843 44.88 68.3563 42.064C71.4283 39.184 74.1483 36.912 76.5163 35.248C78.8843 33.584 80.5483 32.752 81.5083 32.752C82.7243 32.752 83.7803 33.104 84.6763 33.808C85.6363 34.448 86.1483 35.44 86.2123 36.784C86.2123 37.424 85.9883 38.16 85.5403 38.992C85.0923 39.76 84.2283 40.56 82.9483 41.392C81.5403 42.288 79.7483 43.632 77.5723 45.424C75.3963 47.216 73.0603 49.36 70.5643 51.856C68.0683 54.288 65.6043 56.944 63.1723 59.824C60.7403 62.64 58.5003 65.552 56.4523 68.56C54.4043 71.504 52.7723 74.384 51.5563 77.2C50.3403 80.016 49.7323 82.64 49.7323 85.072C49.7323 88.848 50.7883 91.728 52.9003 93.712C55.0123 95.696 57.9243 96.688 61.6363 96.688C63.5563 96.688 65.8283 96.144 68.4523 95.056C71.0763 93.968 73.7643 92.528 76.5163 90.736C79.3323 88.944 82.0203 86.992 84.5803 84.88C87.1403 82.704 89.3163 80.56 91.1083 78.448C92.9643 76.336 94.1803 74.416 94.7563 72.688C93.1563 73.072 91.1403 73.488 88.7083 73.936C86.2763 74.384 83.7483 74.8 81.1243 75.184C78.5643 75.568 76.2283 75.888 74.1163 76.144C72.0043 76.4 70.4683 76.528 69.5083 76.528C67.5243 76.528 65.9563 76.016 64.8043 74.992C63.7163 73.968 63.1723 72.944 63.1723 71.92C63.1723 71.216 63.4603 70.544 64.0363 69.904C64.6123 69.264 65.5083 68.848 66.7243 68.656C68.1323 68.464 69.9883 68.176 72.2923 67.792C74.6603 67.344 77.1243 66.928 79.6843 66.544C82.3083 66.096 84.7083 65.712 86.8843 65.392C89.1243 65.072 90.8203 64.912 91.9723 64.912C95.3003 64.912 97.7643 65.904 99.3643 67.888C100.964 69.808 101.764 72.56 101.764 76.144C101.764 77.872 100.9 79.984 99.1723 82.48C97.4443 84.976 95.1083 87.568 92.1643 90.256C89.2843 92.88 86.0523 95.344 82.4683 97.648C78.9483 99.952 75.3323 101.84 71.6203 103.312C67.9083 104.72 64.3883 105.424 61.0603 105.424Z" fill="#FFF2EB"/>
</svg>
